<svg id="efO0rEy4q971" xmlns="http://www.w3.org/2000/svg" xmlns:xlink="http://www.w3.org/1999/xlink" viewBox="0 0 160 55" shape-rendering="geometricPrecision" text-rendering="geometricPrecision" width="160" height="55" style="background-color:#fff"><g><g><g><polygon points="30.366377,21.866501 35.085209,18.496798 29.398253,15.351952 24.598223,18.281313"/><polygon points="29.844839,27.864716 30.366377,21.866501 24.598223,18.281313 24.479549,24.136911" fill="#00550d"/><polygon points="22.146677,33.963909 22.146677,27.750208 16.319185,23.331183 16.778263,29.433497" fill="#00550d"/><polygon points="22.146677,27.750208 27.999153,23.556036 22.206015,19.739748 16.319185,23.331183"/><polygon points="12.843301,41.381001 11.910569,35.033012 6.244432,29.476177 7.552962,35.779404" fill="#00550d"/><polygon points="11.910569,35.033012 19.379711,29.705196 13.592818,24.992609 6.244432,29.476177"/><polygon points="11.431712,31.735138 10.200213,23.340551 3.883454,18.090811 5.57299,26.23556" fill="#00550d"/><polygon points="10.200213,23.340551 18.895649,18.399986 12.399837,14.046543 3.883454,18.090811"/><polygon points="9.607887,19.330637 7.921475,7.834923 0.841665,3.442963 3.087092,14.255782" fill="#00550d"/><polygon points="7.921475,7.834923 18.271051,3.868732 10.897681,0.317896 0.841665,3.442963"/><path d="M34.298218,24.327414c-4.378426,3.475883-4.475241,3.537302-4.453379,3.537302.5434-6.277201.496555-5.998215.521538-5.998215c4.996778-3.575819,4.684481-3.369703,4.718832-3.369703l-.786991,5.830616Z" fill="#14bb60"/><path d="M27.63064,29.627121c-5.418381,4.309723-5.505823,4.336788-5.483963,4.336788-.053089-6.502058-.02186-6.213701,0-6.213701c6.245974-4.465872,5.830616-4.194172,5.852476-4.194172l-.368513,6.071085Z" fill="#14bb60"/><path d="M19.648289,35.97303c-6.764388,5.377781-6.826848,5.407971-6.804988,5.407971-.958757-6.539532-.932732-6.347989-.932732-6.347989c7.954246-5.671344,7.447282-5.327816,7.469142-5.327816l.268578,6.267834Z" fill="#14bb60"/><path d="M18.271051,3.868732c.474694,11.046003.43722,10.724336.462203,10.724336-8.950479,4.650127-9.147228,4.737569-9.125367,4.737569C7.883999,7.578837,7.899614,7.834923,7.921475,7.834923L18.271051,3.868732Z" fill="#14bb60"/><path d="M18.895649,18.399986c.359144,8.372727.312298,8.082289.346651,8.082289-7.748129,5.206018-7.838695,5.252863-7.810588,5.252863-1.249195-8.613197-1.250236-8.394587-1.231499-8.394587l8.695436-4.940565Z" fill="#14bb60"/></g><path d="M48.189259,4.765028l5.177913-1.249195v24.946413c0,2.733553.815098,4.362812,2.445298,4.887474-.799485,1.521831-2.166413,2.281967-4.100483,2.279781-2.348484,0-3.522728-1.630199-3.522728-4.890598v-25.973875ZM64.375702,35.207897v-22.179448h-8.076046v4.247262h2.83567v17.932186h5.240376ZM58.804291,7.438305c0,1.659242,1.34507,3.004312,3.00431,3.004312s3.004311-1.34507,3.004311-3.004312c-.001869-1.658619-1.345688-3.004314-3.004311-3.004314s-3.00275,1.345695-3.00431,3.004314ZM88.132256,35.214146v-13.609978c.002182-2.83161-.761071-5.037375-2.289155-6.617605s-3.610168-2.370348-6.245964-2.370348c-2.754478,0-4.83657.8329-6.245971,2.498389l-.936898-2.073663h-3.728851v22.173205h5.181038v-16.033413c.53965-.680187,1.230454-1.22546,2.017448-1.592722.751389-.399433,1.585228-.6196,2.435929-.643337c1.642692,0,2.826309.437219,3.550834,1.305408s1.0868,2.251673,1.0868,4.141081v12.822983h5.17479Zm5.593269-2.74823c1.869736,2.107078,4.489914,3.160461,7.86055,3.160461c3.306312,0,5.908699-1.04089,7.807472-3.122986s2.84816-4.892782,2.84816-8.432062c-.010307-3.54771-.947197-6.343721-2.810692-8.388342s-4.480537-3.06677-7.851181-3.06677c-3.204185,0-5.782829,1.062752-7.735634,3.188569s-2.931328,4.881226-2.929359,8.266543c.002029,3.489315.940956,6.287508,2.810684,8.394587Zm4.003662-13.722401c.886307-1.236078,2.330376-1.949368,3.850647-1.901897c3.508049.002183,5.262237,2.411882,5.262237,7.229711.002183,2.348486-.470642,4.156696-1.417839,5.424627-.881004,1.239827-2.324134,1.955927-3.844398,1.908144-3.520546-.002185-5.280968-2.446233-5.280968-7.332771c0-2.279779.476883-4.055822,1.430321-5.327814Zm37.060486,16.470631v-31.698311L129.611755,4.76503v8.888016c-1.429077-.703296-3.00431-1.058692-4.597038-1.036829-2.910927-.066209-5.706009,1.1402-7.654434,3.304118-2.036194,2.202643-3.054276,5.057052-3.054276,8.563229c0,3.508049.886925,6.242848,2.660775,8.204085s4.207603,2.941852,7.301544,2.941852c1.078674.000626,2.149864-.177696,3.16983-.527786c1.028397-.353832,1.757309-.765129,2.186096-1.233578v1.346009h5.165421Zm-5.165421-5.302832c-.22174.302929-.693313.590244-1.417846.902542-.577752.262018-1.19954.412546-1.833191.443464-4.447129,0-6.670693-2.3057-6.670693-6.917415.008431-2.360977.567444-4.173247,1.677048-5.437117s2.705437-1.895653,4.787529-1.895653c1.271057.027482,2.493088.495617,3.457153,1.324145v11.580034Zm29.534073-7.079811c.002182-2.969023-.971252-5.413071-2.919983-7.332771s-4.531463-2.879394-7.748138-2.879394c-2.930298-.039037-5.745667,1.138018-7.77623,3.25103-2.161102,2.169538-3.241653,5.000838-3.241653,8.494521c0,3.551773.983734,6.318739,2.951202,8.300898s4.64296,2.973083,8.026093,2.973083c3.618606-.002186,6.338714-.741085,8.160354-2.217319l-2.008072-3.966193c-1.230453,1.22827-3.026184,1.842562-5.387161,1.842562-1.892517.002186-3.397797-.487186-4.515839-1.467804s-1.724823-2.354732-1.820694-4.122341h15.846024c.241104-.94158.386627-1.905334.434097-2.876272Zm-10.583801-5.886828c3.229172.002186,5.023956,1.62489,5.384033,4.868735h-10.896103c.718293-3.245718,2.555542-4.868735,5.51207-4.868735Z"/></g><g><g><g><path d="M82.842041,49.552448c-.022171.128823-.045166.234066-.055336.281208-.264358,1.225289-.463615,1.674683-1.015739,2.049454-.518776.351379-1.015732.433422-2.539254.433422-1.25872,0-1.694664-.100193-2.119796-.468506-.261544-.226585-.430634-.702762-.430634-1.218048c0-.421551.231812-1.908935.485794-3.126983.231804-1.065834.395958-1.570405.640442-1.944199.383934-.587002.971573-.960228,1.72216-1.100746.397637-.070343.850258-.093735,1.755501-.093735c1.159226,0,1.588722.106327,1.876999.468506.186913.234837.275971.526981.275971.93684c0,.234253-.033165.491898-.143486,1.159397h-1.126229c.088326-.515289.110489-.667499.110489-.866493c0-.527157-.276146-.667675-1.324875-.667675-1.70034,0-2.087219.175598-2.351608,1.042271-.110741.362999-.176651.644283-.419632,1.932499-.242981,1.241439-.298141,1.61621-.298141,2.037761c0,.714455.309143.878361,1.623016.878361c1.755508,0,1.932152-.140518,2.219124-1.733334h1.115234Z" fill="#bababa"/><polygon points="84.399071,52.246185 83.383339,52.246185 84.951019,44.434486 85.966751,44.434486" fill="#bababa"/><path d="M90.747124,47.022793c.242981.199165.386467.573936.386467,1.018879c0,.45681-.152931,1.370662-.364296,2.178451-.438416,1.675526-.98275,2.096409-2.727074,2.096409-.905418,0-1.358047-.093739-1.645012-.316296-.253982-.199169-.386467-.585632-.386467-1.065834c0-.573764.264977-1.967415.529953-2.752212.242806-.725975.677391-1.157478,1.302704-1.346695.289108-.087483.706596-.128822,1.269714-.128822.916413,0,1.35804.081867,1.634011.31612Zm-3.24585,1.440605c-.209816.679195-.430633,1.838589-.430633,2.236927c0,.60902.209816.749538,1.12606.749538.927582,0,1.247719-.210861,1.468529-1.007183.20964-.749542.397468-1.780288.397468-2.143364c0-.58546-.220817-.725975-1.126236-.725975-.927413,0-1.225379.187298-1.435188.890057Z" fill="#bababa"/><path d="M96.03598,52.246185h-1.015915l.231987-.831581-.022171-.011696c-.386467.632416-.960403.913624-1.865821.913624-.960579,0-1.45736-.398334-1.45736-1.159572c0-.210686.021988-.456635.077324-.726151l.739594-3.653965h1.015907l-.706596,3.490059c-.055336.269337-.077332.468506-.077332.597328c0,.409855.253983.573937.861084.573937c1.048904,0,1.435371-.374768,1.689346-1.604512l.607102-3.056812h1.015739L96.03598,52.246185Z" fill="#bababa"/><path d="M101.920586,52.246185h-.993569l.198647-.796322-.021996-.011695c-.386467.632415-.894424.878364-1.777672.878364-1.148224,0-1.678176-.421726-1.678176-1.311783c0-.491897.143486-1.39365.364471-2.248623.375297-1.487384,1.026733-2.049453,2.384773-2.049453.916245,0,1.346871.245948,1.435196.808017l.021996-.011696.618271-3.068508h1.015914l-1.567855,7.811699ZM99.11618,48.556957c-.20964.679371-.386291,1.639775-.386291,2.073021c0,.62072.253975.819885,1.037735.819885.839081,0,1.214554-.257644,1.435364-.983791.22081-.714458.397461-1.627903.397461-2.01437c0-.632412-.28714-.866669-1.08207-.866669-.839081,0-1.181213.234257-1.402199.971924Z" fill="#bababa"/><path d="M112.68541,49.552448c-.021996.128823-.044899.234047-.055161.281208-.266518,1.224823-.463615,1.674683-1.015732,2.049454-.518959.351379-1.015739.433422-2.539261.433422-1.258712,0-1.694664-.100193-2.119796-.468506-.261544-.226585-.430626-.702762-.430626-1.218048c0-.421551.231804-1.908935.485786-3.126983.231804-1.065834.395859-1.570469.640266-1.944199.383957-.587109.971573-.960228,1.722512-1.100746.397285-.070343.850082-.093735,1.755325-.093735c1.159401,0,1.588722.106327,1.876999.468506.186912.234837.27597.526981.27597.93684c0,.234253-.033165.491898-.143486,1.159397h-1.126228c.088326-.515289.110489-.667499.110489-.866493c0-.527157-.27597-.667675-1.324875-.667675-1.70034,0-2.087578.175541-2.351784,1.042271-.110641.362976-.176643.644283-.419456,1.932499-.242806,1.241439-.298134,1.61621-.298134,2.037761c0,.714455.309135.878361,1.623009.878361c1.755508,0,1.932159-.140518,2.219123-1.733334h1.11506Z" fill="#bababa"/><path d="M118.139916,47.022793c.242981.199165.386467.573936.386467,1.018879c0,.45681-.153031,1.370685-.364296,2.178451-.438248,1.675572-.982575,2.096409-2.727082,2.096409-.905243,0-1.35804-.093739-1.645012-.316296-.253975-.199169-.386459-.585632-.386459-1.065834c0-.573764.264969-1.967415.529945-2.752212.242981-.725975.677422-1.157398,1.30288-1.346695.288948-.087452.706604-.128822,1.269546-.128822.916413,0,1.35804.081867,1.634011.31612Zm-3.245858,1.440605c-.209816.679195-.430626,1.838589-.430626,2.236927c0,.60902.209816.749538,1.126229.749538.927238,0,1.247551-.210861,1.468361-1.007183.209816-.749542.39746-1.780288.39746-2.143364c0-.58546-.22081-.725975-1.126228-.725975-.927414,0-1.225555.187298-1.435196.890057Z" fill="#bababa"/><path d="M121.132141,46.776844l-.18782.831581.011169.011696c.430458-.655804.94941-.913448,1.810486-.913448.894424,0,1.369217.339512,1.380211.971924h.021995c.441628-.690892.993744-.971924,1.898987-.971924c1.015739,0,1.490524.363075,1.490524,1.171093c0,.210861-.022163.409855-.099319.77293l-.717773,3.595489h-1.015557l.695427-3.490059c.044159-.187297.077324-.480201.077324-.585632c0-.409855-.242805-.573765-.828087-.573765-.640266,0-1.115303.198838-1.335876.538677-.121621.18739-.22081.491898-.309136.92532l-.640442,3.185459h-1.015564l.695427-3.478363c.055161-.234253.099503-.562069.099503-.644107c0-.351384-.287148-.526986-.850266-.526986-.971573,0-1.424194.421551-1.645004,1.510777l-.629273,3.138679h-1.015739l1.092896-5.469341h1.015907Z" fill="#bababa"/><path d="M130.219147,46.776844l-.209824.77293.022003.011871c.408631-.620719.905411-.854972,1.788666-.854972c1.137222,0,1.667175.433246,1.667175,1.370258c0,.526985-.154663,1.452125-.386459,2.283707-.408463,1.440429-1.015747,1.955894-2.32962,1.955894-.960404,0-1.391037-.234253-1.479355-.831581l-.022171.011692-.618271,3.0919h-1.01574l1.567849-7.811699h1.015747Zm-.242981,1.651295c-.187653.480201-.430466,1.698246-.430466,2.131668c0,.620544.308975.878361,1.081894.878361.850098,0,1.225555-.281208,1.446365-1.112614.187653-.691067.342133-1.557732.342133-1.932503c0-.609024-.253799-.808018-1.037735-.808018-.828079,0-1.148224.198994-1.402191.843106Z" fill="#bababa"/><path d="M138.411377,52.246185h-1.015564l.231811-.831581-.022171-.011696c-.386291.632416-.960586.913624-1.865829.913624-.960571,0-1.457352-.398334-1.457352-1.159572c0-.210686.022156-.456635.077317-.726151l.739776-3.653965h1.015564l-.706604,3.490059c-.05516.269337-.077163.468506-.077163.597328c0,.409855.253814.573937.861084.573937c1.048904,0,1.435379-.374768,1.689178-1.604512l.607269-3.056812h1.015747l-1.093063,5.469341Z" fill="#bababa"/><path d="M143.810547,47.620121h-1.976318l-.607285,3.021553c-.032989.175777-.05516.339683-.05516.421726c0,.304425.12149.398159.518951.398159.441635,0,.604187-.118225.750763-.527157.075729-.211269.132492-.433246.165665-.714279h.883239c-.154648.81971-.221496,1.053532-.397461,1.334999-.343643.549706-.806091.76141-1.656173.76141-.916413,0-1.335877-.281208-1.335877-.890232c0-.187298.011002-.292728.088333-.679195l.629257-3.126984h-.695419l.176651-.843277h.684433l.253967-1.264828h1.015748l-.253983,1.264828h1.976318l-.165649.843277Z" fill="#bababa"/><path d="M144.925781,52.246185h-1.015747l1.092896-5.469341h1.015915l-1.093064,5.469341Zm1.358033-6.792644h-1.015915l.209823-1.019055h1.015732l-.20964,1.019055Z" fill="#bababa"/><path d="M148.458771,46.776844l-.198822.843277.022171.011696c.364303-.632416.938415-.925144,1.82167-.925144c1.048722,0,1.589844.351204,1.589844,1.04227c0,.234253-.022171.363076-.110489.854973l-.739593,3.642269h-1.015915l.684601-3.384628c.088333-.409855.099334-.515285.099334-.667499c0-.445115-.242813-.609024-.905258-.609024-.993744,0-1.490524.409858-1.689163,1.39365l-.651444,3.267501h-1.015731l1.09288-5.469341h1.015915Z" fill="#bababa"/><path d="M156.673172,52.468742c-.3423,1.698075-.993576,2.213364-2.826401,2.213364-1.258545,0-1.799484-.31612-1.799484-1.042271c0-.234253.021988-.398163.099319-.784626h.971573c-.044159.245949-.055328.327816-.055328.468506c0,.386467.242981.503594,1.048904.503594.971573,0,1.32486-.281212,1.501511-1.171269l.231995-1.171089h-.01117c-.342132.573936-.861084.81971-1.76651.81971-1.093063,0-1.645004-.456635-1.645004-1.381955c0-.456634.143478-1.299911.37529-2.201664.253982-.948711.536682-1.413066,1.082077-1.721641.339599-.192143.794922-.292728,1.335861-.292728.905426,0,1.291717.245948,1.435379.901752l.021988-.011696.12149-.819885h1.015732l-1.137222,5.691898Zm-2.80423-3.841438c-.18782.6675-.364471,1.662991-.364471,2.01437c0,.585632.253982.784626,1.037903.784626.850082,0,1.258545-.292728,1.479538-1.065662.176651-.632412.364288-1.592816.364288-1.920632c0-.644283-.264969-.854972-1.082062-.854972-.861084-.000001-1.225387.26934-1.435196,1.04227Z" fill="#bababa"/></g></g><path d="M40.463501,49.333954h-1.958775l1.690625-3.416252h.023319l.244831,3.416252Zm.093281,1.539013l.1166,1.352512h2.145336l-.711235-7.893432h-3.194683l-4.045784,7.893432h2.191921l.676281-1.352512h2.821564Zm6.214485-6.54092h-1.818909L43.28511,52.225479h1.807168l.478035-2.238617h.314792l.851154,2.238617h2.110386l-1.30587-2.868259l2.122017-2.658326h-1.982098l-1.53907,2.075379h-.314792l.944435-4.442226Zm5.211727,5.60815c.594635,0,.98262.047321.886109.501354-.124093.583912-.373124.676285-1.13094.676285-.279842,0-.791012.00034-.664597-.594635.106446-.501072.466347-.583004.909428-.583004Zm.501354,2.285259h1.807225l.734497-3.451206c.40813-1.900448-.326424-2.133648-2.18029-2.133648-1.294178,0-2.541718-.011631-2.914841,1.702255h1.807224c.104912-.501354.40807-.594635.862785-.594635.792828,0,.757874.326481.641274.839524l-.186558.87442h-.08165c-.069904-.629589-.862785-.617958-1.375774-.617958-1.305866,0-2.084286.408699-2.366848,1.737266-.300213,1.411404.373066,1.71394,1.632294,1.71394.629585,0,1.480743-.128231,1.772213-.886105h.05833l-.209881.816147Zm3.730999-5.526554l-1.177581,5.526581h1.807224l.664593-3.136414c.139862-.664592.361434-1.060978,1.10762-1.060978.629585,0,.582947.349743.501354.851098l-.711235,3.346294h1.80722l.664597-3.136414c.1166-.594631.361435-1.060978,1.060978-1.060978s.606266.419705.513046,1.002709l-.676285,3.194683h1.807221l.80452-3.777687c.279785-1.282494-.268212-1.807167-1.539074-1.807167-.699543,0-1.504059.291473-1.772213,1.084301h-.081593c.104912-.944435-.664597-1.084301-1.445789-1.084301-.617955,0-1.32919.186504-1.690621.83947h-.069961l.163238-.781197h-1.737259ZM67.23349,49.940197c.582939,0,.978249.046413.886108.501354-.118026.582718-.373069.676285-1.130943.676285-.268158,0-.791008.00034-.664596-.594635.106445-.501072.466346-.583004.909431-.583004Zm.50135,2.285259h1.807229l.734497-3.451206c.408126-1.900448-.326424-2.133648-2.180291-2.133648-1.294181,0-2.553413-.011631-2.914848,1.702255h1.807228c.104912-.501354.408074-.594635.862786-.594635.792831,0,.757873.326481.641273.839524l-.163239.87442h-.081649c-.069962-.629589-.862786-.617958-1.375771-.617958-1.30587,0-2.084282.408699-2.366852,1.737266-.300209,1.411404.373062,1.71394,1.632294,1.71394.629593,0,1.480743-.128231,1.783905-.886105h.058273l-.244835.816147Zm5.584862-5.526584h-1.807228l-1.165947,5.526584h1.807221l1.165954-5.526584Zm-.606323-2.541691c-.559631,0-1.014343.454712-1.014343,1.014339s.454712,1.01434,1.014343,1.01434s1.014397-.454716,1.014397-1.01434-.454712-1.014339-1.014397-1.014339Z" fill="#bababa"/></g></g></svg>